Coordinates
version=1
nRows=26
nColumns=22
inDegrees=yes

Units are S.I. units (second, meters, Newtons, ...)
If the header above contains a line with 'inDegrees', this indicates whether rotational values are in degrees (yes) or radians (no).

endheader
time	pelvis_tilt	pelvis_list	pelvis_rotation	pelvis_tx	pelvis_ty	pelvis_tz	hip_flexion_r	hip_adduction_r	hip_rotation_r	knee_angle_r	ankle_angle_r	subtalar_angle_r	hip_flexion_l	hip_adduction_l	hip_rotation_l	knee_angle_l	ankle_angle_l	subtalar_angle_l	lumbar_extension	lumbar_bending	lumbar_rotation
      2.89000000	      7.41880815	     -0.38730464	    -34.58763918	      1.32930548	      0.90809574	      1.09895403	      6.57391513	     -1.60970466	     -1.09419974	    -22.02679122	     12.74284134	     -8.10319380	      3.39747554	      3.15538098	     -4.90108629	    -29.74396303	      9.32865352	      0.29157900	    -13.72525167	     -6.31661586	     -1.16852684
      2.90000000	      7.34717213	     -0.32095586	    -34.44528486	      1.33294525	      0.90728548	      1.10248251	      6.39097589	     -1.56425390	     -1.06142918	    -22.21937940	     13.30246585	     -8.13192109	      3.20819190	      3.10580347	     -4.72755175	    -29.85821312	      9.72236061	      0.37216926	    -13.61457096	     -6.25881687	     -1.02135026
      2.91000000	      7.21071955	     -0.24188470	    -34.33029839	      1.33639448	      0.90639218	      1.10596307	      6.27662462	     -1.48339811	     -1.03302426	    -22.38488228	     13.81236460	     -8.32177673	      3.11019166	      3.02291897	     -4.58481931	    -29.99345511	     10.16269021	      0.51490192	    -13.43839541	     -6.19381500	     -0.81087754
      2.92000000	      7.06484304	     -0.16110934	    -34.23834115	      1.33969695	      0.90555475	      1.10940777	      6.12804574	     -1.38904969	     -1.00095409	    -22.44459205	     14.33960496	     -8.35164536	      3.01833626	      2.93167469	     -4.48521475	    -30.09862140	     10.50953548	      0.57841791	    -13.25238465	     -6.14445053	     -0.57303201
      2.93000000	      6.82011183	     -0.05245548	    -34.17207404	      1.34280241	      0.90462240	      1.11278766	      6.07824192	     -1.25052371	     -0.99544859	    -22.45242595	     14.75785138	     -8.64726040	      3.05937231	      2.79264818	     -4.45759424	    -30.22899557	     10.95643275	      0.70148795	    -12.95287085	     -6.08310468	     -0.25485820
      2.94000000	      6.62811443	      0.03727847	    -34.10908564	      1.34579156	      0.90389672	      1.11609424	      5.92135493	     -1.12962628	     -1.05972331	    -22.35143010	     15.20775812	     -8.71392192	      3.00565056	      2.67991715	     -4.41410296	    -30.27115145	     11.27765962	      0.74909108	    -12.72125667	     -6.05186683	      0.04458228
      2.95000000	      6.33303988	      0.14501614	    -34.06420896	      1.34858747	      0.90312019	      1.11931176	      5.85228579	     -0.95319745	     -1.12511382	    -22.17888264	     15.50270087	     -9.12431276	      3.07585526	      2.50254276	     -4.46449028	    -30.32854369	     11.69062542	      0.81734787	    -12.38030588	     -5.98843878	      0.38482010
      2.96000000	      6.09888029	      0.25525422	    -34.01645106	      1.35128147	      0.90253718	      1.12241988	      5.69892170	     -0.82682860	     -1.25440785	    -21.92884582	     15.82562289	     -9.28313243	      3.06090031	      2.37350293	     -4.51485262	    -30.30614423	     12.02846942	      0.84313482	    -12.10032318	     -5.97545779	      0.68146634
      2.97000000	      5.85181909	      0.36020979	    -33.97075370	      1.35381849	      0.90205229	      1.12539484	      5.55254669	     -0.69253671	     -1.39622985	    -21.64566064	     16.09947913	     -9.37393677	      3.03996028	      2.24476716	     -4.53079296	    -30.23218998	     12.29193579	      0.85260839	    -11.82109158	     -5.95818987	      0.99872604
      2.98000000	      5.57336398	      0.46320421	    -33.92353886	      1.35624015	      0.90161764	      1.12827600	      5.43046682	     -0.54214680	     -1.54263128	    -21.33635830	     16.26987974	     -9.53947976	      3.03704081	      2.08220275	     -4.61917114	    -30.12511602	     12.60962036	      0.84273060	    -11.50912221	     -5.91956953	      1.23371773
      2.99000000	      5.31537882	      0.56557864	    -33.85384978	      1.35853755	      0.90129190	      1.13100955	      5.29078077	     -0.41388863	     -1.70810834	    -21.01027343	     16.41822823	     -9.63186848	      3.01079523	      1.94360059	     -4.65803597	    -29.98436791	     12.83864121	      0.82479990	    -11.22965322	     -5.89931912	      1.44570410
      3.00000000	      5.06190133	      0.64816151	    -33.75772898	      1.36074235	      0.90105426	      1.13362401	      5.14001856	     -0.28008293	     -1.89485859	    -20.68122129	     16.51850500	     -9.66083059	      2.96075436	      1.79263369	     -4.67472639	    -29.80986722	     13.04063660	      0.80813896	    -10.97061763	     -5.86272459	      1.59690629
      3.01000000	      4.80727582	      0.69473384	    -33.62449714	      1.36287291	      0.90089563	      1.13611930	      4.97146775	     -0.12176140	     -2.11034971	    -20.34639621	     16.57357071	     -9.62944075	      2.88557309	      1.61048027	     -4.65566430	    -29.61194217	     13.23485630	      0.79391207	    -10.73739965	     -5.78798498	      1.67822351
      3.02000000	      4.55829268	      0.71230906	    -33.46482716	      1.36491990	      0.90080867	      1.13851293	      4.78719808	      0.05333770	     -2.34607626	    -20.01039930	     16.59002321	     -9.54012874	      2.78318206	      1.40890020	     -4.59959640	    -29.38749116	     13.39798222	      0.78695044	    -10.53081009	     -5.68955782	      1.70784640
      3.03000000	      4.31888334	      0.70184822	    -33.28894774	      1.36689016	      0.90078719	      1.14082290	      4.58583709	      0.24260641	     -2.60903503	    -19.67531628	     16.56345086	     -9.39308325	      2.64834143	      1.18900496	     -4.52373974	    -29.13464665	     13.53508430	      0.78600034	    -10.35132128	     -5.57043351	      1.69284562
      3.04000000	      4.08779571	      0.67700483	    -33.11257738	      1.36877730	      0.90079983	      1.14305439	      4.37933949	      0.43787876	     -2.87017726	    -19.34132835	     16.51849707	     -9.21116773	      2.48861556	      0.96276006	     -4.44374675	    -28.85081111	     13.64466228	      0.79045980	    -10.18801668	     -5.44211513	      1.66053059
      3.05000000	      3.86551798	      0.64342871	    -32.94897757	      1.37056436	      0.90082499	      1.14523162	      4.17115611	      0.63614231	     -3.12821480	    -19.00569702	     16.45958642	     -9.00649701	      2.30870432	      0.73316919	     -4.37479550	    -28.54175011	     13.73537966	      0.79892362	    -10.03830874	     -5.31500765	      1.62053315
      3.06000000	      3.64905962	      0.61281486	    -32.80639518	      1.37225693	      0.90083224	      1.14735281	      3.96860026	      0.82952985	     -3.37041072	    -18.66462806	     16.40220185	     -8.80055426	      2.11942661	      0.50963181	     -4.33154693	    -28.20949078	     13.81210098	      0.80961729	     -9.89064132	     -5.19596623	      1.59159765
      3.07000000	      3.44164168	      0.58457847	    -32.68319254	      1.37389219	      0.90080699	      1.14942337	      3.76473637	      1.01643754	     -3.60173218	    -18.31897776	     16.34841452	     -8.59000654	      1.91804067	      0.29335656	     -4.32352638	    -27.86130904	     13.88734379	      0.82296206	     -9.74018135	     -5.08339808	      1.57435904
      3.08000000	      3.23521767	      0.57030292	    -32.58632313	      1.37542550	      0.90071632	      1.15141273	      3.57999287	      1.19133454	     -3.80887039	    -17.96999884	     16.31741661	     -8.40102874	      1.72696463	      0.09155462	     -4.35262872	    -27.50479946	     13.96441440	      0.83558076	     -9.58610488	     -4.98274237	      1.57933947
      3.09000000	      3.03540658	      0.56714855	    -32.50649394	      1.37689591	      0.90054848	      1.15331008	      3.40797951	      1.35172007	     -3.99901361	    -17.62766892	     16.31178955	     -8.22664616	      1.54386090	     -0.09576193	     -4.41972318	    -27.15278699	     14.05694609	      0.84569071	     -9.42791949	     -4.88958284	      1.60124292
      3.10000000	      2.84022114	      0.58523699	    -32.44913803	      1.37830238	      0.90028408	      1.15511214	      3.26112129	      1.48835202	     -4.17680307	    -17.30116694	     16.34625238	     -8.07564723	      1.37827899	     -0.25716074	     -4.52285243	    -26.80859609	     14.16246135	      0.84673038	     -9.25825766	     -4.81457764	      1.64515018
      3.11000000	      2.65411588	      0.61488287	    -32.40211368	      1.37965408	      0.89993636	      1.15679787	      3.13082625	      1.60699743	     -4.34496580	    -16.99385846	     16.40930401	     -7.94291120	      1.22549351	     -0.39897946	     -4.65427029	    -26.47869447	     14.28609583	      0.83181967	     -9.09023272	     -4.74784977	      1.70202890
      3.12000000	      2.47291076	      0.64940499	    -32.36246719	      1.38095244	      0.89950629	      1.15838820	      3.01359801	      1.71847572	     -4.49950208	    -16.70266603	     16.51238982	     -7.85296688	      1.08924122	     -0.52986839	     -4.79766896	    -26.17146620	     14.42993663	      0.80247353	     -8.92258765	     -4.68559528	      1.76858043
      3.13000000	      2.30754245	      0.67148123	    -32.32045108	      1.38223123	      0.89903340	      1.15986916	      2.88734986	      1.83080069	     -4.64179416	    -16.42854026	     16.62693539	     -7.78370338	      0.94710907	     -0.65936728	     -4.95571218	    -25.88248235	     14.60093381	      0.75391302	     -8.77558424	     -4.61129650	      1.83926562
      3.14000000	      2.15709926	      0.67886219	    -32.27748024	      1.38348146	      0.89852663	      1.16126162	      2.75236675	      1.94757381	     -4.76916874	    -16.17126042	     16.75653489	     -7.73856501	      0.79768271	     -0.79010021	     -5.11738324	    -25.61152347	     14.79141772	      0.68827968	     -8.64962756	     -4.52971855	      1.91310285
